<?xml version="1.0" encoding="utf-8"?>
<!DOCTYPE svg PUBLIC "-//W3C//DTD SVG 1.1//EN" "http://www.w3.org/Graphics/SVG/1.1/DTD/svg11.dtd">
<svg version="1.1" id="Layer_1" xmlns="http://www.w3.org/2000/svg" xmlns:xlink="http://www.w3.org/1999/xlink" x="0px" y="0px"
	 width="283.75px" height="191.75px" viewBox="0 0 283.75 191.75" enable-background="new 0 0 283.75 191.75" xml:space="preserve">
<polygon fill="#FFFFFF" points="90.42,8.62 99.25,6.73 99.25,142.33 90.42,142.33 "/>
<polygon points="99.25,6.73 106.75,8.87 106.75,142.33 99.25,142.33 "/>
<polygon fill="#FFFFFF" points="70.38,12.91 63.17,14.45 63.17,142.33 70.38,142.33 "/>
<polygon points="70.38,12.91 77.17,14.65 77.17,142.33 70.38,142.33 "/>
<polygon points="227.81,87.43 159.87,65.87 159.87,153.83 227.81,153.83 "/>
<polygon points="268.99,118.69 227.81,110.08 227.81,153.83 268.99,153.83 "/>
<polygon fill="#FFFFFF" points="10.65,81.66 159.87,65.87 159.87,153.83 10.65,153.83 "/>
<polygon fill="#FFFFFF" points="198.58,92.89 174.1,86.63 174.1,98.85 198.58,103.97 "/>
<polygon points="111.25,61.75 134.75,68.39 134.75,153.83 111.25,153.83 "/>
<polygon fill="#FFFFFF" points="28.6,153.83 111.25,153.83 111.25,61.75 28.6,71.47 "/>
<g>
	<path d="M14.61,184.5l-2.62-17.55l-0.15-1.18h-0.23v18.73h-3.8v-27.93h5.02l2.43,12.77l0.19,1.48h0.08l0.19-1.48l2.43-12.77h5.02
		v27.93h-3.8v-18.73h-0.23l-0.15,1.18l-2.62,17.55H14.61z"/>
	<path d="M25.06,184.5l4.22-27.93h5.02l4.22,27.93h-3.99l-0.76-5.7h-3.95l-0.76,5.7H25.06z M32.01,165.65l-0.11-0.72h-0.23
		l-0.11,0.72l-1.18,8.82h2.81L32.01,165.65z"/>
	<path d="M47.74,184.5l-2.13-11.78h-1.1v11.78h-4.1v-27.93h4.1c4.9,0,6.99,2.77,6.99,8.05c0,2.77-0.72,5.28-2.28,6.34l2.62,13.53
		H47.74z M44.51,168.92c0.57,0,1.33-0.08,1.94-0.61s1.1-1.56,1.1-3.53s-0.49-3.04-1.1-3.57c-0.61-0.53-1.37-0.57-1.94-0.57V168.92z"
		/>
	<path d="M58.23,156.57v9.76h0.15l0.19-0.46l3.42-9.31h3.99l-3.76,9.19l4.26,18.73h-3.99l-2.85-12.16l-0.11-0.57h-0.11l-0.23,0.57
		l-0.95,2.28v9.88h-4.1v-27.93H58.23z"/>
	<path d="M79.05,178.76c-0.04,1.14-0.27,2.17-0.68,3.04c-0.34,0.76-0.87,1.48-1.63,2.05c-0.76,0.61-1.79,0.95-3.15,0.95
		s-2.43-0.34-3.19-0.95c-0.76-0.57-1.25-1.29-1.6-2.05c-0.42-0.87-0.65-1.9-0.68-3.04v-16.45c0.04-1.1,0.27-2.13,0.68-3
		c0.34-0.76,0.84-1.52,1.6-2.09c0.76-0.57,1.82-0.95,3.19-0.95s2.39,0.38,3.15,0.95c0.76,0.57,1.29,1.33,1.63,2.09
		c0.42,0.87,0.65,1.9,0.68,3V178.76z M74.95,162.31c0-0.76-0.15-1.29-0.53-1.75c-0.19-0.19-0.49-0.3-0.84-0.3
		c-0.72,0-1.06,0.53-1.22,1.03c-0.11,0.3-0.15,0.65-0.15,1.03v16.45c0,0.8,0.19,1.33,0.57,1.75c0.19,0.19,0.46,0.3,0.8,0.3
		c0.72,0,1.06-0.46,1.22-1.03c0.11-0.27,0.15-0.61,0.15-1.03V162.31z"/>
	<path d="M89.28,156.57h3.99l-4.26,27.93h-4.1l-4.26-27.93h3.99l2.05,15.35l0.15,1.18h0.23l0.15-1.18L89.28,156.57z"/>
	<path d="M95.13,156.57h4.1v24.13h5.43v3.8h-9.54V156.57z"/>
	<path d="M105.58,184.5l4.22-27.93h5.02l4.22,27.93h-3.99l-0.76-5.7h-3.95l-0.76,5.7H105.58z M112.53,165.65l-0.11-0.72h-0.23
		l-0.11,0.72l-1.18,8.82h2.81L112.53,165.65z"/>
	<path d="M120.93,184.5v-27.93h3.61c2.43,0,4.33,0.46,5.58,1.63s1.9,3,1.9,5.78c0,1.33-0.11,2.32-0.53,3.23
		c-0.42,0.91-1.06,1.67-2.01,2.54c1.03,0.57,1.79,1.63,2.39,3.42c0.3,0.87,0.46,2.01,0.46,3.42c0,2.09-0.38,3.95-1.33,5.39
		c-0.95,1.44-2.58,2.39-5.02,2.51H120.93z M125.03,168.09c0.34,0,1.14,0.04,1.82-0.42c0.68-0.46,1.22-1.37,1.22-3.31
		c0-1.94-0.53-2.85-1.22-3.31c-0.68-0.46-1.48-0.42-1.82-0.42V168.09z M125.03,180.43c0.34,0,1.14,0.08,1.82-0.42
		c0.68-0.49,1.22-1.6,1.22-3.88c0-2.28-0.53-3.38-1.22-3.88c-0.68-0.49-1.48-0.42-1.82-0.42V180.43z"/>
	<path d="M145.44,178.76c-0.04,1.14-0.27,2.17-0.68,3.04c-0.34,0.76-0.87,1.48-1.63,2.05c-0.76,0.61-1.79,0.95-3.15,0.95
		s-2.43-0.34-3.19-0.95c-0.76-0.57-1.25-1.29-1.6-2.05c-0.42-0.87-0.65-1.9-0.68-3.04v-16.45c0.04-1.1,0.27-2.13,0.68-3
		c0.34-0.76,0.84-1.52,1.6-2.09c0.76-0.57,1.82-0.95,3.19-0.95s2.39,0.38,3.15,0.95c0.76,0.57,1.29,1.33,1.63,2.09
		c0.42,0.87,0.65,1.9,0.68,3V178.76z M141.34,162.31c0-0.76-0.15-1.29-0.53-1.75c-0.19-0.19-0.49-0.3-0.84-0.3
		c-0.72,0-1.06,0.53-1.22,1.03c-0.11,0.3-0.15,0.65-0.15,1.03v16.45c0,0.8,0.19,1.33,0.57,1.75c0.19,0.19,0.46,0.3,0.8,0.3
		c0.72,0,1.06-0.46,1.22-1.03c0.11-0.27,0.15-0.61,0.15-1.03V162.31z"/>
	<path d="M155.55,184.5l-2.13-11.78h-1.1v11.78h-4.1v-27.93h4.1c4.9,0,6.99,2.77,6.99,8.05c0,2.77-0.72,5.28-2.28,6.34l2.62,13.53
		H155.55z M152.32,168.92c0.57,0,1.33-0.08,1.94-0.61s1.1-1.56,1.1-3.53s-0.49-3.04-1.1-3.57c-0.61-0.53-1.37-0.57-1.94-0.57V168.92
		z"/>
	<path d="M160.79,184.5l4.22-27.93h5.02l4.22,27.93h-3.99l-0.76-5.7h-3.95l-0.76,5.7H160.79z M167.75,165.65l-0.12-0.72h-0.23
		l-0.11,0.72l-1.18,8.82h2.81L167.75,165.65z"/>
	<path d="M173.87,160.79v-4.22h11.85v4.22h-3.88v23.71h-4.1v-23.71H173.87z"/>
	<path d="M197.99,178.76c-0.04,1.14-0.27,2.17-0.68,3.04c-0.34,0.76-0.87,1.48-1.63,2.05c-0.76,0.61-1.79,0.95-3.15,0.95
		c-1.37,0-2.43-0.34-3.19-0.95c-0.76-0.57-1.25-1.29-1.6-2.05c-0.42-0.87-0.65-1.9-0.68-3.04v-16.45c0.04-1.1,0.27-2.13,0.68-3
		c0.34-0.76,0.84-1.52,1.6-2.09c0.76-0.57,1.82-0.95,3.19-0.95c1.37,0,2.39,0.38,3.15,0.95c0.76,0.57,1.29,1.33,1.63,2.09
		c0.42,0.87,0.65,1.9,0.68,3V178.76z M193.89,162.31c0-0.76-0.15-1.29-0.53-1.75c-0.19-0.19-0.49-0.3-0.84-0.3
		c-0.72,0-1.06,0.53-1.21,1.03c-0.12,0.3-0.15,0.65-0.15,1.03v16.45c0,0.8,0.19,1.33,0.57,1.75c0.19,0.19,0.46,0.3,0.8,0.3
		c0.72,0,1.06-0.46,1.22-1.03c0.11-0.27,0.15-0.61,0.15-1.03V162.31z"/>
	<path d="M208.1,184.5l-2.13-11.78h-1.1v11.78h-4.1v-27.93h4.1c4.9,0,6.99,2.77,6.99,8.05c0,2.77-0.72,5.28-2.28,6.34l2.62,13.53
		H208.1z M204.87,168.92c0.57,0,1.33-0.08,1.94-0.61s1.1-1.56,1.1-3.53s-0.49-3.04-1.1-3.57c-0.61-0.53-1.37-0.57-1.94-0.57V168.92z
		"/>
	<path d="M214.49,156.57h4.1v27.93h-4.1V156.57z"/>
	<path d="M221.63,156.57h9.38v4.22h-5.28v7.33h3.8v4.48h-3.8v7.67h5.28v4.22h-9.38V156.57z"/>
	<path d="M240.63,184.5l-2.13-11.78h-1.1v11.78h-4.1v-27.93h4.1c4.9,0,6.99,2.77,6.99,8.05c0,2.77-0.72,5.28-2.28,6.34l2.62,13.53
		H240.63z M237.4,168.92c0.57,0,1.33-0.08,1.94-0.61c0.61-0.53,1.1-1.56,1.1-3.53s-0.49-3.04-1.1-3.57
		c-0.61-0.53-1.37-0.57-1.94-0.57V168.92z"/>
	<path d="M251.34,169.95l-0.34-1.29h-0.23v15.84h-3.76v-27.93h3.65l3.99,14.55l0.34,1.29h0.23v-15.84h3.76v27.93h-3.65
		L251.34,169.95z"/>
	<path d="M260.88,184.5l4.22-27.93h5.02l4.22,27.93h-3.99l-0.76-5.7h-3.95l-0.76,5.7H260.88z M267.84,165.65l-0.11-0.72h-0.23
		l-0.11,0.72l-1.18,8.82h2.81L267.84,165.65z"/>
</g>
<g>
</g>
<g>
</g>
<g>
</g>
<g>
</g>
<g>
</g>
<g>
</g>
</svg>
